<svg width="32" height="30" viewBox="0 0 32 30" fill="none" xmlns="http://www.w3.org/2000/svg">
<path d="M0 5.71429C0 4.19876 0.602039 2.74531 1.67368 1.67368C2.74531 0.602039 4.19876 0 5.71429 0H14.8571C16.3727 0 17.8261 0.602039 18.8978 1.67368C19.9694 2.74531 20.5714 4.19876 20.5714 5.71429V6.85714H18.2857V5.71429C18.2857 4.80497 17.9245 3.9329 17.2815 3.28992C16.6385 2.64694 15.7665 2.28571 14.8571 2.28571H5.71429C4.80497 2.28571 3.9329 2.64694 3.28992 3.28992C2.64694 3.9329 2.28571 4.80497 2.28571 5.71429V14.8571C2.28571 15.7665 2.64694 16.6385 3.28992 17.2815C3.9329 17.9245 4.80497 18.2857 5.71429 18.2857H18.48C18.7496 17.5232 19.2801 16.8805 19.9777 16.4713C20.6753 16.062 21.4951 15.9126 22.2923 16.0494C23.0894 16.1861 23.8125 16.6003 24.3338 17.2187C24.8551 17.837 25.1411 18.6198 25.1411 19.4286C25.1411 20.2374 24.8551 21.0201 24.3338 21.6385C23.8125 22.2568 23.0894 22.671 22.2923 22.8078C21.4951 22.9445 20.6753 22.7951 19.9777 22.3859C19.2801 21.9766 18.7496 21.334 18.48 20.5714H5.71429C4.19876 20.5714 2.74531 19.9694 1.67368 18.8978C0.602039 17.8261 0 16.3727 0 14.8571V5.71429ZM11.4286 22.8571V24C11.4286 25.5155 12.0306 26.969 13.1022 28.0406C14.1739 29.1122 15.6273 29.7143 17.1429 29.7143H26.2857C27.8012 29.7143 29.2547 29.1122 30.3263 28.0406C31.398 26.969 32 25.5155 32 24V14.8571C32 13.3416 31.398 11.8882 30.3263 10.8165C29.2547 9.7449 27.8012 9.14286 26.2857 9.14286H13.52C13.2504 8.38033 12.7199 7.73765 12.0223 7.32842C11.3247 6.91919 10.5049 6.76975 9.70773 6.90652C8.9106 7.04329 8.18747 7.45745 7.66617 8.07582C7.14486 8.69418 6.85894 9.47693 6.85894 10.2857C6.85894 11.0945 7.14486 11.8772 7.66617 12.4956C8.18747 13.114 8.9106 13.5281 9.70773 13.6649C10.5049 13.8017 11.3247 13.6522 12.0223 13.243C12.7199 12.8338 13.2504 12.1911 13.52 11.4286H26.2857C27.195 11.4286 28.0671 11.7898 28.7101 12.4328C29.3531 13.0758 29.7143 13.9478 29.7143 14.8571V24C29.7143 24.9093 29.3531 25.7814 28.7101 26.4244C28.0671 27.0673 27.195 27.4286 26.2857 27.4286H17.1429C16.2335 27.4286 15.3615 27.0673 14.7185 26.4244C14.0755 25.7814 13.7143 24.9093 13.7143 24V22.8571H11.4286Z" fill="#8C30F5"/>
</svg>
