<svg width="22" height="20" viewBox="0 0 22 20" fill="none" xmlns="http://www.w3.org/2000/svg">
<path d="M20.7123 18.2875C20.9 18.4771 21.0054 18.7332 21.0054 19C21.0054 19.2668 20.9 19.5229 20.7123 19.7125C20.5211 19.8973 20.2656 20.0006 19.9998 20.0006C19.7339 20.0006 19.4784 19.8973 19.2873 19.7125L10.9998 11.4125L2.71227 19.7125C2.52113 19.8973 2.26565 20.0006 1.99977 20.0006C1.73388 20.0006 1.47841 19.8973 1.28727 19.7125C1.09948 19.5229 0.994141 19.2668 0.994141 19C0.994141 18.7332 1.09948 18.4771 1.28727 18.2875L9.58727 10L1.28727 1.7125C1.1278 1.5182 1.04631 1.27154 1.05864 1.02049C1.07097 0.769436 1.17624 0.531945 1.35398 0.35421C1.53171 0.176476 1.7692 0.0712053 2.02025 0.0588752C2.27131 0.0465451 2.51797 0.128037 2.71227 0.2875L10.9998 8.5875L19.2873 0.2875C19.4816 0.128037 19.7282 0.0465451 19.9793 0.0588752C20.2303 0.0712053 20.4678 0.176476 20.6456 0.35421C20.8233 0.531945 20.9286 0.769436 20.9409 1.02049C20.9532 1.27154 20.8717 1.5182 20.7123 1.7125L12.4123 10L20.7123 18.2875Z" fill="black"/>
</svg>
