<svg width="32" height="26" viewBox="0 0 32 26" fill="none" xmlns="http://www.w3.org/2000/svg">
<path d="M28.8 0H3.2C1.44 0 0.016 1.44 0.016 3.2L0 22.4C0 24.16 1.44 25.6 3.2 25.6H28.8C30.56 25.6 32 24.16 32 22.4V3.2C32 1.44 30.56 0 28.8 0ZM28.16 6.8L16.848 13.872C16.336 14.192 15.664 14.192 15.152 13.872L3.84 6.8C3.67956 6.70994 3.53907 6.58826 3.42702 6.44233C3.31497 6.29639 3.2337 6.12924 3.18812 5.95099C3.14254 5.77274 3.1336 5.5871 3.16185 5.40529C3.1901 5.22349 3.25494 5.0493 3.35245 4.89328C3.44996 4.73726 3.57812 4.60265 3.72916 4.49759C3.88021 4.39254 4.05099 4.31922 4.23119 4.28208C4.41139 4.24494 4.59725 4.24475 4.77753 4.28152C4.9578 4.31829 5.12874 4.39125 5.28 4.496L16 11.2L26.72 4.496C26.8713 4.39125 27.0422 4.31829 27.2225 4.28152C27.4027 4.24475 27.5886 4.24494 27.7688 4.28208C27.949 4.31922 28.1198 4.39254 28.2708 4.49759C28.4219 4.60265 28.55 4.73726 28.6476 4.89328C28.7451 5.0493 28.8099 5.22349 28.8382 5.40529C28.8664 5.5871 28.8575 5.77274 28.8119 5.95099C28.7663 6.12924 28.685 6.29639 28.573 6.44233C28.4609 6.58826 28.3204 6.70994 28.16 6.8Z" fill="#ECECF4"/>
</svg>
