<svg width="25" height="32" viewBox="0 0 25 32" fill="none" xmlns="http://www.w3.org/2000/svg">
<path d="M19.6364 17.4545C16.8727 17.4545 14.5455 19.7964 14.5455 22.5455C14.5455 26.3418 19.6364 32 19.6364 32C19.6364 32 24.7273 26.3418 24.7273 22.5455C24.7273 19.7964 22.4 17.4545 19.6364 17.4545ZM19.6364 24.4509C18.6182 24.4509 17.8909 23.5782 17.8909 22.7055C17.8909 21.6873 18.7636 20.96 19.6364 20.96C20.5091 20.96 21.3818 21.8182 21.3818 22.7055C21.5273 23.5782 20.6545 24.4509 19.6364 24.4509ZM15.8691 32H2.90909C2.13755 32 1.39761 31.6935 0.852053 31.1479C0.306492 30.6024 0 29.8624 0 29.0909V2.90909C0 1.29455 1.29455 0 2.90909 0H17.4545C18.2261 0 18.966 0.306493 19.5116 0.852053C20.0571 1.39761 20.3636 2.13755 20.3636 2.90909V14.5891C20.1309 14.5455 19.8836 14.5455 19.6364 14.5455C18.9091 14.5455 18.1818 14.6618 17.4545 14.8655V5.81818H2.90909V26.1818H12.4218C13.2945 28.3636 14.72 30.5018 15.8691 32Z" fill="#8C30F5"/>
</svg>
