<svg width="32" height="32" viewBox="0 0 32 32" fill="none" xmlns="http://www.w3.org/2000/svg">
<path d="M3.55556 7.11111C4.49855 7.11111 5.40292 6.73651 6.06971 6.06971C6.73651 5.40292 7.11111 4.49855 7.11111 3.55556C7.11111 2.61256 6.73651 1.70819 6.06971 1.0414C5.40292 0.374602 4.49855 0 3.55556 0C2.61256 0 1.70819 0.374602 1.0414 1.0414C0.374602 1.70819 0 2.61256 0 3.55556C0 4.49855 0.374602 5.40292 1.0414 6.06971C1.70819 6.73651 2.61256 7.11111 3.55556 7.11111ZM16 7.11111C16.943 7.11111 17.8474 6.73651 18.5142 6.06971C19.181 5.40292 19.5556 4.49855 19.5556 3.55556C19.5556 2.61256 19.181 1.70819 18.5142 1.0414C17.8474 0.374602 16.943 0 16 0C15.057 0 14.1526 0.374602 13.4858 1.0414C12.819 1.70819 12.4444 2.61256 12.4444 3.55556C12.4444 4.49855 12.819 5.40292 13.4858 6.06971C14.1526 6.73651 15.057 7.11111 16 7.11111ZM28.4444 7.11111C29.3874 7.11111 30.2918 6.73651 30.9586 6.06971C31.6254 5.40292 32 4.49855 32 3.55556C32 2.61256 31.6254 1.70819 30.9586 1.0414C30.2918 0.374602 29.3874 0 28.4444 0C27.5015 0 26.5971 0.374602 25.9303 1.0414C25.2635 1.70819 24.8889 2.61256 24.8889 3.55556C24.8889 4.49855 25.2635 5.40292 25.9303 6.06971C26.5971 6.73651 27.5015 7.11111 28.4444 7.11111ZM3.55556 19.5556C4.49855 19.5556 5.40292 19.181 6.06971 18.5142C6.73651 17.8474 7.11111 16.943 7.11111 16C7.11111 15.057 6.73651 14.1526 6.06971 13.4858C5.40292 12.819 4.49855 12.4444 3.55556 12.4444C2.61256 12.4444 1.70819 12.819 1.0414 13.4858C0.374602 14.1526 0 15.057 0 16C0 16.943 0.374602 17.8474 1.0414 18.5142C1.70819 19.181 2.61256 19.5556 3.55556 19.5556ZM16 19.5556C16.943 19.5556 17.8474 19.181 18.5142 18.5142C19.181 17.8474 19.5556 16.943 19.5556 16C19.5556 15.057 19.181 14.1526 18.5142 13.4858C17.8474 12.819 16.943 12.4444 16 12.4444C15.057 12.4444 14.1526 12.819 13.4858 13.4858C12.819 14.1526 12.4444 15.057 12.4444 16C12.4444 16.943 12.819 17.8474 13.4858 18.5142C14.1526 19.181 15.057 19.5556 16 19.5556ZM28.4444 19.5556C29.3874 19.5556 30.2918 19.181 30.9586 18.5142C31.6254 17.8474 32 16.943 32 16C32 15.057 31.6254 14.1526 30.9586 13.4858C30.2918 12.819 29.3874 12.4444 28.4444 12.4444C27.5015 12.4444 26.5971 12.819 25.9303 13.4858C25.2635 14.1526 24.8889 15.057 24.8889 16C24.8889 16.943 25.2635 17.8474 25.9303 18.5142C26.5971 19.181 27.5015 19.5556 28.4444 19.5556ZM3.55556 32C4.49855 32 5.40292 31.6254 6.06971 30.9586C6.73651 30.2918 7.11111 29.3874 7.11111 28.4444C7.11111 27.5015 6.73651 26.5971 6.06971 25.9303C5.40292 25.2635 4.49855 24.8889 3.55556 24.8889C2.61256 24.8889 1.70819 25.2635 1.0414 25.9303C0.374602 26.5971 0 27.5015 0 28.4444C0 29.3874 0.374602 30.2918 1.0414 30.9586C1.70819 31.6254 2.61256 32 3.55556 32ZM16 32C16.943 32 17.8474 31.6254 18.5142 30.9586C19.181 30.2918 19.5556 29.3874 19.5556 28.4444C19.5556 27.5015 19.181 26.5971 18.5142 25.9303C17.8474 25.2635 16.943 24.8889 16 24.8889C15.057 24.8889 14.1526 25.2635 13.4858 25.9303C12.819 26.5971 12.4444 27.5015 12.4444 28.4444C12.4444 29.3874 12.819 30.2918 13.4858 30.9586C14.1526 31.6254 15.057 32 16 32ZM28.4444 32C29.3874 32 30.2918 31.6254 30.9586 30.9586C31.6254 30.2918 32 29.3874 32 28.4444C32 27.5015 31.6254 26.5971 30.9586 25.9303C30.2918 25.2635 29.3874 24.8889 28.4444 24.8889C27.5015 24.8889 26.5971 25.2635 25.9303 25.9303C25.2635 26.5971 24.8889 27.5015 24.8889 28.4444C24.8889 29.3874 25.2635 30.2918 25.9303 30.9586C26.5971 31.6254 27.5015 32 28.4444 32Z" fill="#8C30F5"/>
</svg>
