<svg width="32" height="33" viewBox="0 0 32 33" fill="none" xmlns="http://www.w3.org/2000/svg">
<path d="M15.9994 0C15.337 0 14.7017 0.263135 14.2333 0.731519C13.765 1.1999 13.5018 1.83517 13.5018 2.49756V14.9854C13.5018 15.6478 13.765 16.283 14.2333 16.7514C14.7017 17.2198 15.337 17.4829 15.9994 17.4829C16.6618 17.4829 17.297 17.2198 17.7654 16.7514C18.2338 16.283 18.4969 15.6478 18.4969 14.9854V2.49756C18.4969 1.83517 18.2338 1.1999 17.7654 0.731519C17.297 0.263135 16.6618 0 15.9994 0ZM7.06311 3.23934C6.70284 3.28484 6.36356 3.43409 6.08656 3.66892C4.1873 5.16619 2.65268 7.07505 1.59836 9.25161C0.544039 11.4282 -0.00247459 13.8157 8.42311e-06 16.2341C8.42311e-06 25.048 7.18299 32.2348 15.9994 32.2348C24.8158 32.2348 32 25.048 32 16.2341C32 11.1479 29.6248 6.59731 25.9122 3.66767C25.72 3.51392 25.4994 3.39954 25.263 3.33106C25.0266 3.26257 24.779 3.24131 24.5344 3.26851C24.2898 3.2957 24.0529 3.37081 23.8373 3.48954C23.6217 3.60827 23.4316 3.76831 23.2779 3.96051C23.1242 4.15271 23.0098 4.3733 22.9413 4.60971C22.8728 4.84611 22.8515 5.09369 22.8787 5.33831C22.9059 5.58292 22.981 5.81979 23.0998 6.03538C23.2185 6.25097 23.3785 6.44107 23.5707 6.59481C25.0311 7.74129 26.2116 9.20489 27.0229 10.8749C27.8342 12.5449 28.2551 14.3775 28.2537 16.2341C28.2576 17.8445 27.9433 19.4398 27.3289 20.9283C26.7145 22.4169 25.812 23.7693 24.6733 24.908C23.5346 26.0467 22.1821 26.9492 20.6936 27.5637C19.205 28.1781 17.6097 28.4924 15.9994 28.4884C14.389 28.4924 12.7937 28.1781 11.3052 27.5637C9.81666 26.9492 8.46418 26.0467 7.32548 24.908C6.18678 23.7693 5.28429 22.4169 4.66985 20.9283C4.05542 19.4398 3.74115 17.8445 3.7451 16.2341C3.74405 14.3776 4.16508 12.5451 4.97636 10.8751C5.78764 9.20519 6.96793 7.74154 8.42803 6.59481C8.75873 6.34641 8.99793 5.99554 9.1083 5.59693C9.21867 5.19833 9.19401 4.7744 9.03817 4.39128C8.88232 4.00816 8.60406 3.68739 8.24678 3.47901C7.88951 3.27063 7.47331 3.18635 7.06311 3.23934Z" fill="#8C30F5"/>
</svg>
