<svg width="32" height="32" viewBox="0 0 32 32" fill="none" xmlns="http://www.w3.org/2000/svg">
<path d="M21.2 0C21.49 1.22286e-05 21.7701 0.105028 21.9887 0.295627C22.2072 0.486226 22.3494 0.749514 22.3888 1.0368L22.4 1.2V4.92C23.5541 5.15622 24.6132 5.72659 25.4456 6.56014C26.278 7.39368 26.847 8.4536 27.0816 9.608H30.8C31.104 9.60809 31.3967 9.72359 31.6189 9.93116C31.841 10.1387 31.9761 10.4229 31.9968 10.7262C32.0176 11.0295 31.9224 11.3294 31.7305 11.5653C31.5386 11.8011 31.2644 11.9554 30.9632 11.9968L30.8 12.008L27.2 12.0064V14.8064H30.8C31.0905 14.8065 31.371 14.912 31.5896 15.1032C31.8082 15.2945 31.9501 15.5585 31.9888 15.8464L32 16.0064C32.0004 16.2967 31.8955 16.5772 31.7049 16.7961C31.5143 17.015 31.2508 17.1573 30.9632 17.1968L30.8 17.208L27.2 17.2064V20.0064H30.8C31.0905 20.0065 31.371 20.112 31.5896 20.3032C31.8082 20.4945 31.9501 20.7585 31.9888 21.0464L32 21.2064C32.0004 21.4967 31.8955 21.7772 31.7049 21.9961C31.5143 22.215 31.2508 22.3573 30.9632 22.3968L30.8 22.408H27.0784C26.841 23.559 26.2712 24.615 25.4397 25.4454C24.6081 26.2758 23.5513 26.8442 22.4 27.08V30.8C22.3999 31.104 22.2844 31.3967 22.0768 31.6189C21.8693 31.841 21.5851 31.9761 21.2818 31.9968C20.9785 32.0176 20.6786 31.9224 20.4427 31.7305C20.2069 31.5386 20.0526 31.2644 20.0112 30.9632L20 30.8V27.1984H17.1984L17.2 30.8C17.2 31.09 17.095 31.3701 16.9044 31.5887C16.7138 31.8072 16.4505 31.9494 16.1632 31.9888L16 32C15.71 32 15.4299 31.895 15.2113 31.7044C14.9928 31.5138 14.8506 31.2505 14.8112 30.9632L14.8 30.8L14.7984 27.1984H12V30.8C12 31.09 11.895 31.3701 11.7044 31.5887C11.5138 31.8072 11.2505 31.9494 10.9632 31.9888L10.8 32C10.51 32 10.2299 31.895 10.0113 31.7044C9.79277 31.5138 9.65064 31.2505 9.6112 30.9632L9.6 30.8V27.08C8.44728 26.8441 7.38924 26.2748 6.55724 25.4428C5.72524 24.6108 5.15594 23.5527 4.92 22.4H1.2C0.895962 22.3999 0.603295 22.2844 0.381133 22.0768C0.158972 21.8693 0.0238818 21.5851 0.00315857 21.2818C-0.0175646 20.9785 0.0776244 20.6786 0.269492 20.4427C0.46136 20.2069 0.7356 20.0526 1.0368 20.0112L1.2 20L4.8 19.9984V17.1984L1.2 17.2C0.91002 17.2 0.629853 17.095 0.411311 16.9044C0.192769 16.7138 0.0506372 16.4505 0.0112 16.1632L0 16C1.22286e-05 15.71 0.105028 15.4299 0.295627 15.2113C0.486226 14.9928 0.749514 14.8506 1.0368 14.8112L1.2 14.8L4.8 14.7984V11.9984L1.2 12C0.91002 12 0.629853 11.895 0.411311 11.7044C0.192769 11.5138 0.0506372 11.2505 0.0112 10.9632L0 10.8C1.22286e-05 10.51 0.105028 10.2299 0.295627 10.0113C0.486226 9.79277 0.749514 9.65064 1.0368 9.6112L1.2 9.6L4.92 9.5984C5.15622 8.44597 5.72565 7.38828 6.55762 6.55658C7.3896 5.72489 8.44749 5.15582 9.6 4.92V1.2C9.60009 0.895962 9.71559 0.603295 9.92316 0.381133C10.1307 0.158972 10.4149 0.0238818 10.7182 0.00315857C11.0215 -0.0175646 11.3214 0.0776244 11.5573 0.269492C11.7931 0.46136 11.9474 0.7356 11.9888 1.0368L12 1.2V4.7984H14.7984L14.8 1.2C14.8 0.91002 14.905 0.629853 15.0956 0.411311C15.2862 0.192769 15.5495 0.0506372 15.8368 0.0112L16 0C16.29 1.22286e-05 16.5701 0.105028 16.7887 0.295627C17.0072 0.486226 17.1494 0.749514 17.1888 1.0368L17.2 1.2L17.1984 4.7984H20V1.2C19.9999 0.937466 20.086 0.682158 20.2449 0.473211C20.4039 0.264264 20.627 0.113209 20.88 0.0431999L21.0368 0.0112L21.2 0ZM16.008 11.208C14.735 11.208 13.5141 11.7137 12.6139 12.6139C11.7137 13.5141 11.208 14.735 11.208 16.008C11.208 17.281 11.7137 18.5019 12.6139 19.4021C13.5141 20.3023 14.735 20.808 16.008 20.808C17.281 20.808 18.5019 20.3023 19.4021 19.4021C20.3023 18.5019 20.808 17.281 20.808 16.008C20.808 14.735 20.3023 13.5141 19.4021 12.6139C18.5019 11.7137 17.281 11.208 16.008 11.208ZM16.008 13.608C16.6445 13.608 17.255 13.8609 17.7051 14.3109C18.1551 14.761 18.408 15.3715 18.408 16.008C18.408 16.6445 18.1551 17.255 17.7051 17.7051C17.255 18.1551 16.6445 18.408 16.008 18.408C15.3715 18.408 14.761 18.1551 14.3109 17.7051C13.8609 17.255 13.608 16.6445 13.608 16.008C13.608 15.3715 13.8609 14.761 14.3109 14.3109C14.761 13.8609 15.3715 13.608 16.008 13.608Z" fill="#8C30F5"/>
</svg>
