<svg width="33" height="30" viewBox="0 0 33 30" fill="none" xmlns="http://www.w3.org/2000/svg">
<path d="M13.5 6.3C13.5 3.45 11.7 0.9 9 0V5.55H4.5V0C1.8 0.9 0 3.45 0 6.3C0 9.15 1.8 11.7 4.5 12.6V29.1C4.5 29.7 4.8 30 5.25 30H8.25C8.7 30 9 29.7 9 29.25V12.75C11.7 11.85 13.5 9.3 13.5 6.3ZM22.5 9C16.65 9.15 12 13.8 12 19.5C12 25.35 16.65 30 22.5 30C28.35 30 33 25.35 33 19.5C33 13.65 28.35 9 22.5 9ZM22.5 27C18.3 27 15 23.7 15 19.5C15 15.3 18.3 12 22.5 12C26.7 12 30 15.3 30 19.5C30 23.7 26.7 27 22.5 27ZM21 13.5V21L26.4 24.3L27.6 22.5L23.25 19.95V13.5H21Z" fill="white"/>
</svg>
