<svg width="29" height="32" viewBox="0 0 29 32" fill="none" xmlns="http://www.w3.org/2000/svg">
<path d="M14.2238 4.07344V0.891531C14.2238 0.0916081 13.2639 -0.299465 12.7128 0.269368L7.73551 5.22889C7.37999 5.58441 7.37999 6.13547 7.73551 6.49099L12.695 11.4505C13.2639 12.0016 14.2238 11.6105 14.2238 10.8106V7.62866C20.1076 7.62866 24.8894 12.4104 24.8894 18.2943C24.8894 23.1294 21.6364 27.2179 17.2279 28.5155C16.4813 28.7288 16.0014 29.4399 16.0014 30.2043C16.0014 31.3597 17.1035 32.2663 18.2234 31.9285C21.1724 31.0669 23.7626 29.2725 25.6054 26.8142C27.4483 24.356 28.4445 21.3666 28.4446 18.2943C28.4446 10.4373 22.0808 4.07344 14.2238 4.07344ZM3.55813 18.2943C3.55813 15.9123 4.34028 13.7081 5.67349 11.9127C6.20677 11.2016 6.13566 10.224 5.5135 9.58402C4.76691 8.83743 3.48703 8.90853 2.84709 9.76178C1.46761 11.5983 0.554076 13.742 0.184789 16.0091C-0.184498 18.2761 0.00148277 20.5989 0.726788 22.7783C1.45209 24.9577 2.69509 26.9288 4.34921 28.5224C6.00334 30.1161 8.01926 31.2848 10.2242 31.9285C11.344 32.2663 12.4462 31.3597 12.4462 30.2043C12.4462 29.4399 11.9662 28.7288 11.2196 28.5155C6.81115 27.2179 3.55813 23.1294 3.55813 18.2943Z" fill="#8C30F5"/>
</svg>
