<svg width="30" height="30" viewBox="0 0 30 30" fill="none" xmlns="http://www.w3.org/2000/svg">
<path d="M29.7779 18.0995L27.7162 15.3598C27.73 15.1107 27.7162 14.8478 27.7162 14.6541L29.7779 11.9005C29.8804 11.7665 29.9501 11.6103 29.9813 11.4445C30.0126 11.2787 30.0045 11.1079 29.9578 10.9458C29.6091 9.67007 29.1024 8.44293 28.4495 7.2928C28.3653 7.1467 28.2496 7.02122 28.1107 6.92548C27.9719 6.82973 27.8135 6.76614 27.647 6.73932L24.2569 6.25503L23.745 5.74306L23.2607 2.353C23.2339 2.1865 23.1703 2.02808 23.0745 1.88925C22.9788 1.75043 22.8533 1.63469 22.7072 1.55045C21.5571 0.897608 20.3299 0.390944 19.0542 0.0422241C18.8921 -0.0045088 18.7213 -0.0125792 18.5555 0.0186603C18.3897 0.0498999 18.2335 0.119579 18.0995 0.222105L15.3598 2.26998H14.6402L11.9005 0.222105C11.7665 0.119579 11.6103 0.0498999 11.4445 0.0186603C11.2787 -0.0125792 11.1079 -0.0045088 10.9458 0.0422241C9.67007 0.390944 8.44293 0.897608 7.2928 1.55045C7.1467 1.63469 7.02122 1.75043 6.92548 1.88925C6.82973 2.02808 6.76614 2.1865 6.73932 2.353L6.25503 5.74306L5.74306 6.25503L2.353 6.73932C2.1865 6.76614 2.02808 6.82973 1.88925 6.92548C1.75043 7.02122 1.63469 7.1467 1.55045 7.2928C0.897608 8.44293 0.390944 9.67007 0.0422241 10.9458C-0.0045088 11.1079 -0.0125792 11.2787 0.0186603 11.4445C0.0498999 11.6103 0.119579 11.7665 0.222105 11.9005L2.28382 14.6402V15.3459L0.222105 18.0995C0.119579 18.2335 0.0498999 18.3897 0.0186603 18.5555C-0.0125792 18.7213 -0.0045088 18.8921 0.0422241 19.0542C0.390944 20.3299 0.897608 21.5571 1.55045 22.7072C1.63469 22.8533 1.75043 22.9788 1.88925 23.0745C2.02808 23.1703 2.1865 23.2339 2.353 23.2607L5.74306 23.745L6.25503 24.2569L6.73932 27.647C6.76614 27.8135 6.82973 27.9719 6.92548 28.1107C7.02122 28.2496 7.1467 28.3653 7.2928 28.4495C8.44293 29.1024 9.67007 29.6091 10.9458 29.9578C11.0402 29.9851 11.138 29.9991 11.2363 29.9993C11.4764 30.0024 11.7104 29.9244 11.9005 29.7779L14.6402 27.73H15.3598L18.0995 29.7779C18.2335 29.8804 18.3897 29.9501 18.5555 29.9813C18.7213 30.0126 18.8921 30.0045 19.0542 29.9578C20.3299 29.6091 21.5571 29.1024 22.7072 28.4495C22.8533 28.3653 22.9788 28.2496 23.0745 28.1107C23.1703 27.9719 23.2339 27.8135 23.2607 27.647L23.745 24.2431C23.911 24.0771 24.1047 23.8972 24.2431 23.745L27.647 23.2607C27.8135 23.2339 27.9719 23.1703 28.1107 23.0745C28.2496 22.9788 28.3653 22.8533 28.4495 22.7072C29.1024 21.5571 29.6091 20.3299 29.9578 19.0542C30.0045 18.8921 30.0126 18.7213 29.9813 18.5555C29.9501 18.3897 29.8804 18.2335 29.7779 18.0995ZM15 21.0883C13.7959 21.0883 12.6187 20.7312 11.6175 20.0622C10.6163 19.3932 9.83598 18.4424 9.37517 17.3299C8.91436 16.2174 8.7938 14.9932 9.02871 13.8122C9.26363 12.6312 9.84348 11.5464 10.6949 10.6949C11.5464 9.84348 12.6312 9.26363 13.8122 9.02871C14.9932 8.7938 16.2174 8.91436 17.3299 9.37517C18.4424 9.83598 19.3932 10.6163 20.0622 11.6175C20.7312 12.6187 21.0883 13.7959 21.0883 15C21.0883 16.6147 20.4468 18.1633 19.3051 19.3051C18.1633 20.4468 16.6147 21.0883 15 21.0883Z" fill="white"/>
</svg>
