<svg width="40" height="32" viewBox="0 0 40 32" fill="none" xmlns="http://www.w3.org/2000/svg">
<path d="M33.7778 24.8889H39.1111L32 32L24.8889 24.8889H30.2222V0H33.7778V24.8889ZM12.4444 3.55556C5.58222 3.55556 0 9.12 0 16C0 22.88 5.56444 28.4444 12.4444 28.4444C19.3067 28.4444 24.8889 22.88 24.8889 16C24.8889 9.12 19.3244 3.55556 12.4444 3.55556ZM12.4444 7.37778C17.1911 7.37778 21.0667 11.2356 21.0667 16C21.0667 20.7644 17.2089 24.6222 12.4444 24.6222C7.68 24.6222 3.82222 20.7644 3.82222 16C3.82222 11.2356 7.68 7.37778 12.4444 7.37778ZM10.6667 10.6667V17.2267L16.3378 20.4978L17.6711 18.1867L13.3333 15.68V10.6667" fill="#8C30F5"/>
</svg>
