<svg width="32" height="31" viewBox="0 0 32 31" fill="none" xmlns="http://www.w3.org/2000/svg">
<path d="M13.7143 30.9457C11.8095 30.9457 10.0257 30.5901 8.36267 29.879C6.69867 29.1679 5.24444 28.1901 4 26.9457C2.75556 25.7012 1.77778 24.247 1.06667 22.583C0.355556 20.92 0 19.1362 0 17.2314C0 13.3965 1.32724 10.1518 3.98171 7.49729C6.63517 4.84383 9.87936 3.5171 13.7143 3.5171C14.0444 3.5171 14.3619 3.5298 14.6667 3.5552C14.9714 3.58059 15.2762 3.61869 15.581 3.66948C15.9111 3.72028 16.1905 3.89145 16.419 4.18301C16.6476 4.47558 16.7619 4.79964 16.7619 5.1552C16.7619 5.66313 16.5907 6.05018 16.2484 6.31634C15.905 6.58351 15.4667 6.69171 14.9333 6.64091C14.7302 6.61551 14.527 6.59621 14.3238 6.58301C14.1206 6.57082 13.9175 6.56472 13.7143 6.56472C10.7175 6.56472 8.19048 7.59329 6.13333 9.65044C4.07619 11.7076 3.04762 14.2346 3.04762 17.2314C3.04762 20.2282 4.07619 22.7552 6.13333 24.8123C8.19048 26.8695 10.7175 27.8981 13.7143 27.8981C16.6857 27.8981 19.1939 26.8822 21.2389 24.8504C23.2828 22.8187 24.3302 20.3171 24.381 17.3457C24.381 16.9139 24.5272 16.533 24.8198 16.2028C25.1114 15.8727 25.473 15.7076 25.9048 15.7076C26.3111 15.7076 26.6667 15.8534 26.9714 16.1449C27.2762 16.4375 27.4286 16.7742 27.4286 17.1552V17.2314C27.4286 21.0663 26.1013 24.3105 23.4469 26.964C20.7934 29.6184 17.5492 30.9457 13.7143 30.9457ZM25.9048 12.66C25.473 12.66 25.1114 12.5137 24.8198 12.2211C24.5272 11.9295 24.381 11.5679 24.381 11.1361V8.08853H21.3333C20.9016 8.08853 20.5399 7.94275 20.2484 7.6512C19.9558 7.35862 19.8095 6.99647 19.8095 6.56472C19.8095 6.13297 19.9558 5.77082 20.2484 5.47824C20.5399 5.18669 20.9016 5.04091 21.3333 5.04091H24.381V1.99329C24.381 1.56155 24.5272 1.19939 24.8198 0.906816C25.1114 0.61526 25.473 0.469482 25.9048 0.469482C26.3365 0.469482 26.6982 0.61526 26.9897 0.906816C27.2823 1.19939 27.4286 1.56155 27.4286 1.99329V5.04091H30.4762C30.9079 5.04091 31.2696 5.18669 31.5611 5.47824C31.8537 5.77082 32 6.13297 32 6.56472C32 6.99647 31.8537 7.35862 31.5611 7.6512C31.2696 7.94275 30.9079 8.08853 30.4762 8.08853H27.4286V11.1361C27.4286 11.5679 27.2823 11.9295 26.9897 12.2211C26.6982 12.5137 26.3365 12.66 25.9048 12.66ZM16.9143 22.5647L12.6476 18.2981C12.4952 18.1457 12.381 17.974 12.3048 17.783C12.2286 17.593 12.1905 17.3965 12.1905 17.1933V11.1361C12.1905 10.7044 12.3368 10.3422 12.6293 10.0497C12.9209 9.75812 13.2825 9.61234 13.7143 9.61234C14.146 9.61234 14.5082 9.75812 14.8008 10.0497C15.0923 10.3422 15.2381 10.7044 15.2381 11.1361V16.6219L19.0476 20.4314C19.327 20.7108 19.4667 21.0663 19.4667 21.4981C19.4667 21.9298 19.327 22.2854 19.0476 22.5647C18.7683 22.8441 18.4127 22.9838 17.981 22.9838C17.5492 22.9838 17.1937 22.8441 16.9143 22.5647Z" fill="#8C30F5"/>
</svg>
