<svg width="32" height="33" viewBox="0 0 32 33" fill="none" xmlns="http://www.w3.org/2000/svg">
<path d="M27.3367 4.67949C25.8624 3.19033 24.1064 2.00961 22.1711 1.20621C20.2357 0.402804 18.1598 -0.0072042 16.0643 9.57904e-05C7.28442 9.57904e-05 0.128643 7.15587 0.128643 15.9358C0.128643 18.7498 0.868342 21.4835 2.25126 23.8956L0 32.1609L8.44221 29.9418C10.7739 31.2122 13.395 31.8875 16.0643 31.8875C24.8442 31.8875 32 24.7318 32 15.9519C32 11.6905 30.3437 7.68653 27.3367 4.67949ZM16.0643 29.186C13.6844 29.186 11.3528 28.5428 9.31055 27.3368L8.82814 27.0473L3.81106 28.3659L5.14573 23.4775L4.82412 22.979C3.5019 20.8676 2.79982 18.427 2.79799 15.9358C2.79799 8.63527 8.74774 2.68552 16.0482 2.68552C19.5859 2.68552 22.9146 4.06844 25.407 6.57698C26.6412 7.80546 27.6192 9.26669 28.2845 10.876C28.9497 12.4852 29.2889 14.2105 29.2824 15.9519C29.3146 23.2524 23.3648 29.186 16.0643 29.186ZM23.3327 19.2805C22.9307 19.0875 20.9688 18.1227 20.6151 17.978C20.2452 17.8493 19.9879 17.785 19.7146 18.1709C19.4412 18.573 18.6854 19.4735 18.4603 19.7307C18.2352 20.0041 17.994 20.0363 17.592 19.8272C17.1899 19.6343 15.9035 19.2001 14.392 17.8493C13.202 16.788 12.4141 15.4855 12.1729 15.0835C11.9477 14.6815 12.1407 14.4725 12.3497 14.2634C12.5266 14.0865 12.7518 13.7971 12.9447 13.572C13.1377 13.3468 13.2181 13.1699 13.3467 12.9127C13.4754 12.6393 13.4111 12.4142 13.3146 12.2212C13.2181 12.0282 12.4141 10.0664 12.0925 9.26241C11.7709 8.49055 11.4332 8.58703 11.192 8.57095H10.4201C10.1467 8.57095 9.72864 8.66743 9.35879 9.06944C9.00502 9.47145 7.97588 10.4363 7.97588 12.3981C7.97588 14.3599 9.40703 16.2574 9.6 16.5147C9.79296 16.788 12.4141 20.8081 16.402 22.5287C17.3508 22.9468 18.0905 23.188 18.6693 23.3649C19.6181 23.6704 20.4864 23.6222 21.1779 23.5257C21.9497 23.4132 23.5417 22.5609 23.8633 21.6282C24.201 20.6956 24.201 19.9076 24.0884 19.7307C23.9759 19.5539 23.7347 19.4735 23.3327 19.2805Z" fill="#ECECF4"/>
</svg>
